<svg width="55" height="55" viewBox="0 0 55 55" fill="none" xmlns="http://www.w3.org/2000/svg">
<circle cx="27.5" cy="27.5" r="27.5" fill="white"/>
<path d="M24.754 16.9231C22.6621 16.9224 20.606 17.4659 18.7877 18.5003C16.9695 19.5347 15.4516 21.0244 14.3832 22.8229C13.3149 24.6215 12.7329 26.667 12.6943 28.7586C12.6558 30.8501 13.162 32.9157 14.1633 34.7524L12.7365 39.7563C12.6863 39.932 12.685 40.1181 12.7326 40.2945C12.7803 40.4709 12.8752 40.631 13.0071 40.7575C13.139 40.884 13.3028 40.9722 13.4811 41.0125C13.6593 41.0528 13.8452 41.0437 14.0186 40.9862L18.7171 39.4207C20.3185 40.3461 22.1113 40.8907 23.9568 41.0124C25.8023 41.134 27.6511 40.8295 29.3601 40.1223C31.0691 39.4152 32.5925 38.3244 33.8125 36.9343C35.0325 35.5442 35.9163 33.8921 36.3957 32.1057C36.875 30.3194 36.937 28.4467 36.5768 26.6326C36.2166 24.8185 35.4439 23.1116 34.3185 21.6438C33.1931 20.1761 31.7451 18.987 30.0866 18.1684C28.4281 17.3498 26.6035 16.9237 24.754 16.9231ZM20.7348 26.9712C20.7348 26.7047 20.8406 26.4491 21.0291 26.2607C21.2175 26.0722 21.4731 25.9664 21.7396 25.9664H27.7684C28.0349 25.9664 28.2905 26.0722 28.4789 26.2607C28.6674 26.4491 28.7732 26.7047 28.7732 26.9712C28.7732 27.2377 28.6674 27.4932 28.4789 27.6817C28.2905 27.8701 28.0349 27.976 27.7684 27.976H21.7396C21.4731 27.976 21.2175 27.8701 21.0291 27.6817C20.8406 27.4932 20.7348 27.2377 20.7348 26.9712ZM21.7396 29.9856H25.7588C26.0253 29.9856 26.2809 30.0915 26.4693 30.2799C26.6578 30.4683 26.7636 30.7239 26.7636 30.9904C26.7636 31.2569 26.6578 31.5125 26.4693 31.7009C26.2809 31.8893 26.0253 31.9952 25.7588 31.9952H21.7396C21.4731 31.9952 21.2175 31.8893 21.0291 31.7009C20.8406 31.5125 20.7348 31.2569 20.7348 30.9904C20.7348 30.7239 20.8406 30.4683 21.0291 30.2799C21.2175 30.0915 21.4731 29.9856 21.7396 29.9856Z" fill="#3D4246"/>
<path d="M40.008 19.6894L39.6864 20.4464C39.6361 20.5697 39.5513 20.675 39.4427 20.7491C39.3341 20.8231 39.2064 20.8627 39.0759 20.8627C38.9453 20.8627 38.8177 20.8231 38.7091 20.7491C38.6004 20.675 38.5157 20.5697 38.4654 20.4464L38.1438 19.6894C37.5784 18.3501 36.5429 17.2763 35.2417 16.6799L34.2495 16.2264C34.1291 16.1698 34.0271 16.079 33.9557 15.9648C33.8842 15.8507 33.8462 15.718 33.8462 15.5824C33.8462 15.4468 33.8842 15.3141 33.9557 15.1999C34.0271 15.0858 34.1291 14.995 34.2495 14.9384L35.1868 14.5117C36.5207 13.8982 37.5739 12.7847 38.1294 11.4005L38.4602 10.5833C38.5087 10.4567 38.5935 10.348 38.7033 10.2714C38.8131 10.1948 38.943 10.1538 39.0759 10.1538C39.2088 10.1538 39.3387 10.1948 39.4485 10.2714C39.5583 10.348 39.643 10.4567 39.6916 10.5833L40.0223 11.3992C40.5773 12.7837 41.63 13.8977 42.9637 14.5117L43.9023 14.9397C44.0223 14.9965 44.1239 15.0873 44.1951 15.2013C44.2663 15.3153 44.3042 15.4478 44.3042 15.5831C44.3042 15.7184 44.2663 15.8508 44.1951 15.9648C44.1239 16.0788 44.0223 16.1696 43.9023 16.2264L42.9088 16.6785C41.6078 17.2756 40.5728 18.3498 40.008 19.6894Z" fill="#3D4246"/>
</svg>
