<svg data-name="Calque 1" xmlns="http://www.w3.org/2000/svg" width="21" height="21"><path d="M10.5 0A10.5 10.5 0 1 0 21 10.5 10.5 10.5 0 0 0 10.5 0Z" style="fill:#b7d8e3"/><path d="M20 10.5a8.93 8.93 0 0 1-.09 1.27A9.48 9.48 0 0 1 10.5 20a6.55 6.55 0 0 1-.89 0 8.76 8.76 0 0 1-2.5-.58A9.49 9.49 0 0 1 1.67 14a9.66 9.66 0 0 1-.59-2.23 9.51 9.51 0 0 1 6-10.14 8.76 8.76 0 0 1 2.5-.58A6.55 6.55 0 0 1 10.5 1a9.49 9.49 0 0 1 8.83 6 9.37 9.37 0 0 1 .59 2.27A10.16 10.16 0 0 1 20 10.5Z" style="fill:#c60c30"/><path d="M20 10.5a8.93 8.93 0 0 1-.09 1.27H9.61V20a8.76 8.76 0 0 1-2.5-.58v-7.6h-6a9.51 9.51 0 0 1 0-2.5h6V1.63a8.76 8.76 0 0 1 2.5-.58v8.22h10.31A10.16 10.16 0 0 1 20 10.5Z" style="fill:#fff"/></svg>