<svg id="Calque_1" data-name="Calque 1" xmlns="http://www.w3.org/2000/svg" viewBox="0 0 21 21"><defs><style>.cls-4{fill:#e52628}</style></defs><circle cx="10.5" cy="10.5" r="10.5" style="fill:#b7d8e3"/><path d="M7 1.66a9.43 9.43 0 0 0-3.3 2.17L7 6Zm10.07 2a9.43 9.43 0 0 0-3.16-2v4.1ZM3.94 17.36a9.56 9.56 0 0 0 3.09 2v-4Zm10 2a9.62 9.62 0 0 0 3.18-2l-3.18-2.06Z" style="fill:#0e4e9d"/><path d="M13.94 7.14v-.4l3.75-2.44c-.19-.22-.38-.42-.58-.62l-3.17 2.07v-4.1a9.37 9.37 0 0 0-1.48-.45v7.4h7.35a9.38 9.38 0 0 0-1.31-3.21l-2.7 1.75Zm-1.48 12.65a9.7 9.7 0 0 0 1.48-.45v-4.1l3.18 2.06a9.67 9.67 0 0 0 1.32-1.61L15.88 14h2.45l.77.51a9.41 9.41 0 0 0 .67-2h-7.31v7.28Zm-4-18.58A9.72 9.72 0 0 0 7 1.66V6L3.73 3.84a9.49 9.49 0 0 0-1.22 1.54l2.62 1.76H2.68l-.83-.55a8.85 8.85 0 0 0-.66 2h7.32ZM1.22 12.54a9.54 9.54 0 0 0 1.31 3.12L5 14h2v.31l-3.7 2.42c.19.22.39.43.6.64l3.09-2v4a9.7 9.7 0 0 0 1.48.45v-7.28Z" style="fill:#fff"/><path class="cls-4" d="M5.13 7.14 2.51 5.38a9.58 9.58 0 0 0-.66 1.22l.83.55h2.45ZM15.88 14l2.57 1.7a9.22 9.22 0 0 0 .66-1.19l-.78-.51ZM7 14H5l-2.5 1.67a9.2 9.2 0 0 0 .8 1.06L7 14.31Zm6.91-7.26v.4h1.86l2.73-1.75a9.42 9.42 0 0 0-.8-1.08Z"/><path class="cls-4" d="M12.46 1.21a9.63 9.63 0 0 0-4 0V8.6H1.19A9.35 9.35 0 0 0 1 10.5a9.66 9.66 0 0 0 .23 2h7.29v7.24a9.39 9.39 0 0 0 4 0v-7.2h7.31a9.35 9.35 0 0 0 0-3.94h-7.37Z"/></svg>