<?xml version="1.0" encoding="UTF-8"?>
<svg id="Calque_1" data-name="Calque 1" xmlns="http://www.w3.org/2000/svg" width="36" height="26" xmlns:xlink="http://www.w3.org/1999/xlink" viewBox="0 0 36 26">
  <defs>
    <style>
      .cls-1, .cls-2 {
        fill: #fff;
      }

      .cls-3 {
        fill: #c06;
      }

      .cls-2 {
        stroke: #e9e9e9;
      }

      .cls-4 {
        clip-path: url(#clippath);
      }

      .cls-5 {
        fill: none;
      }
    </style>
    <clipPath id="clippath">
      <rect class="cls-5" x="7.65" y="2.99" width="22.71" height="20.02"/>
    </clipPath>
  </defs>
  <rect class="cls-2" x=".5" y=".5" width="35" height="25" rx="1.5" ry="1.5"/>
  <g id="g10">
    <g id="g12">
      <g class="cls-4">
        <g id="g14">
          <g id="g20">
            <path id="path22" class="cls-1" d="M7.65,4.48V21.52c0,.82,.66,1.48,1.48,1.48h10.19c7.7,0,11.04-4.31,11.04-10.03S27.02,2.99,19.32,2.99H9.13c-.82,0-1.48,.66-1.48,1.48"/>
          </g>
          <g id="g24">
            <path id="path26" class="cls-3" d="M14.46,7.18v12.59h5.48c4.98,0,7.14-2.81,7.14-6.78s-2.16-6.76-7.14-6.76h-4.53c-.52,0-.95,.43-.95,.95"/>
          </g>
          <g id="g28">
            <path id="path30" d="M10.46,4.83c-.52,0-.95,.43-.95,.95v14.44c0,.52,.43,.95,.95,.95h8.86c5.92,0,9.18-2.91,9.18-8.19,0-7.09-5.75-8.15-9.18-8.15H10.46Zm8.86,16.82H10.46c-.79,0-1.42-.64-1.42-1.42V5.78c0-.79,.64-1.42,1.42-1.42h8.86c8.4,0,9.66,5.4,9.66,8.63,0,5.59-3.43,8.66-9.66,8.66"/>
          </g>
          <g id="g32">
            <path id="path34" class="cls-1" d="M16.35,13.74c.1,0,.19-.02,.28-.05,.09-.03,.17-.08,.24-.15,.07-.07,.13-.16,.17-.28,.04-.11,.06-.26,.06-.42,0-.15-.01-.29-.04-.41-.03-.12-.08-.23-.15-.31-.07-.09-.16-.15-.27-.2-.11-.05-.25-.07-.41-.07h-.47v1.9h.59Zm.05-2.45c.19,0,.37,.03,.54,.09,.17,.06,.31,.15,.43,.28,.12,.12,.22,.28,.29,.46,.07,.19,.1,.4,.1,.65,0,.22-.03,.42-.08,.61-.06,.19-.14,.35-.25,.48-.11,.14-.26,.24-.43,.32-.17,.08-.37,.12-.6,.12h-1.3v-3.01h1.3Z"/>
          </g>
          <g id="g36">
            <path id="path38" class="cls-1" d="M20.45,11.29v.56h-1.59v.64h1.46v.51h-1.46v.74h1.62v.56h-2.28v-3.01h2.25Z"/>
          </g>
          <g id="g40">
            <path id="path42" class="cls-1" d="M22.75,13.13l-.38-1.1h0l-.39,1.1h.78Zm-.04-1.85l1.12,3.01h-.69l-.23-.67h-1.13l-.24,.67h-.67l1.14-3.01h.68Z"/>
          </g>
          <g id="g44">
            <path id="path46" class="cls-1" d="M24.91,11.29v2.45h1.47v.56h-2.13v-3.01h.66Z"/>
          </g>
          <g id="g48">
            <path id="path50" d="M13.37,12.79c0,.77-.62,1.39-1.39,1.39s-1.39-.62-1.39-1.39,.62-1.39,1.39-1.39,1.39,.62,1.39,1.39"/>
          </g>
          <g id="g52">
            <path id="path54" d="M13.04,19.77h0c-1.16,0-2.1-.94-2.1-2.1v-1.64c0-.58,.47-1.05,1.05-1.05,.58,0,1.05,.47,1.05,1.05v3.74Z"/>
          </g>
        </g>
      </g>
    </g>
  </g>
</svg>