<svg xmlns="http://www.w3.org/2000/svg" width="425.16" height="171.51" viewBox="0 0 425.16 171.51"><defs><style>.cls-1{fill:#010101}.cls-2{fill:#a6c293}</style></defs><path class="cls-1" d="M7.92 113.59H0v-4.65h21.56v4.65h-7.92v20.02H7.92v-20.02zM50.16 129.03v4.58H31v-24.67h18.7v4.58h-13v5.36h11.48v4.44H36.7v5.71h13.46z"/><path class="cls-1" d="m76.86 133.61-4.77-6.87H66.8v6.87h-5.71v-24.67h10.72a13.67 13.67 0 0 1 5.71 1.13 8.15 8.15 0 0 1 5 7.86 8 8 0 0 1-5.08 7.79l5.56 7.89ZM75.4 114.7a6.08 6.08 0 0 0-3.92-1.11H66.8v8.6h4.66a6 6 0 0 0 3.92-1.12 4.38 4.38 0 0 0 .15-6.21l-.14-.14" transform="translate(-.02)"/><path class="cls-1" d="M116.12 108.94v24.67h-5.73v-10.12H99.15v10.12h-5.73v-24.67h5.73v9.72h11.24v-9.72h5.73zM128.35 108.94h5.72v24.67h-5.72zM146.31 108.94h5.72v20.01h12.41v4.66h-18.13v-24.67zM174.01 108.94h5.73v20.01h12.41v4.66h-18.14v-24.67z"/><path class="cls-1" d="M204.06 133.24a13.33 13.33 0 0 1-4.4-2.06l1.94-4.3a13.11 13.11 0 0 0 3.79 1.86 14 14 0 0 0 4.4.73 7 7 0 0 0 3.61-.73 2.22 2.22 0 0 0 1.17-1.92 1.86 1.86 0 0 0-.69-1.47 5.28 5.28 0 0 0-1.77-.93c-.74-.24-1.69-.49-2.94-.78a38.79 38.79 0 0 1-4.63-1.31 7.43 7.43 0 0 1-3.09-2.15 5.7 5.7 0 0 1-1.29-3.94 6.85 6.85 0 0 1 1.17-3.9 7.72 7.72 0 0 1 3.51-2.77 14.48 14.48 0 0 1 5.75-1 19.06 19.06 0 0 1 4.63.57 13.49 13.49 0 0 1 3.95 1.62l-1.76 4.31a13.82 13.82 0 0 0-6.86-1.94 6.35 6.35 0 0 0-3.55.78 2.33 2.33 0 0 0-1.15 2 2 2 0 0 0 1.32 1.89 20.31 20.31 0 0 0 4.05 1.21 41.49 41.49 0 0 1 4.63 1.34 7.79 7.79 0 0 1 3.1 2.12 5.72 5.72 0 0 1 1.29 3.91 6.71 6.71 0 0 1-1.19 3.85 7.85 7.85 0 0 1-3.55 2.84 14.52 14.52 0 0 1-5.76 1 21 21 0 0 1-5.68-.79M262.65 133.61l-4.78-6.87h-5.26v6.87h-5.72v-24.67h10.7a13.64 13.64 0 0 1 5.71 1.06 8.15 8.15 0 0 1 5 7.86 8 8 0 0 1-5.09 7.79l5.55 7.93Zm-1.47-18.91a6.05 6.05 0 0 0-3.93-1.11h-4.66v8.6h4.66a6 6 0 0 0 3.93-1.13 4.39 4.39 0 0 0 .16-6.21l-.14-.14" transform="translate(-.02)"/><path class="cls-1" d="M298.36 129.03v4.58h-19.15v-24.67h18.7v4.58H284.9v5.36h11.49v4.44H284.9v5.71h13.46z"/><path class="cls-1" d="M311.77 133.24a13.33 13.33 0 0 1-4.4-2.06l1.94-4.3a13.05 13.05 0 0 0 3.78 1.86 14 14 0 0 0 4.4.73 7 7 0 0 0 3.61-.73 2.21 2.21 0 0 0 1.16-1.92 1.82 1.82 0 0 0-.69-1.47 5.14 5.14 0 0 0-1.76-.93c-.74-.24-1.69-.49-2.94-.78a38.92 38.92 0 0 1-4.63-1.34 7.46 7.46 0 0 1-3.1-2.15 5.8 5.8 0 0 1-1.29-3.94 6.85 6.85 0 0 1 1.17-3.9 7.8 7.8 0 0 1 3.52-2.77 14.43 14.43 0 0 1 5.74-1 19.06 19.06 0 0 1 4.63.57 13.51 13.51 0 0 1 4 1.62l-1.81 4.34a13.91 13.91 0 0 0-6.85-1.94 6.58 6.58 0 0 0-3.56.78 2.35 2.35 0 0 0-1.15 2 2 2 0 0 0 1.33 1.89 20.31 20.31 0 0 0 4.05 1.21 44.43 44.43 0 0 1 4.63 1.34 7.68 7.68 0 0 1 3.09 2.12 5.61 5.61 0 0 1 1.29 3.91 6.73 6.73 0 0 1-1.18 3.86 8 8 0 0 1-3.55 2.76 14.6 14.6 0 0 1-5.77 1 20.48 20.48 0 0 1-5.67-.79M343.26 132.37a12.14 12.14 0 0 1-4.84-4.56 13.09 13.09 0 0 1 0-13.07 12.23 12.23 0 0 1 4.84-4.57 15.36 15.36 0 0 1 13.88 0 12.57 12.57 0 0 1 0 22.2 15.3 15.3 0 0 1-13.88 0m10.91-4.21a7.3 7.3 0 0 0 2.77-2.8 8.82 8.82 0 0 0 0-8.18 7.21 7.21 0 0 0-2.77-2.79 8.3 8.3 0 0 0-7.92 0 7.18 7.18 0 0 0-2.79 2.81 8.8 8.8 0 0 0 0 8.17 7.19 7.19 0 0 0 2.77 2.81 8.3 8.3 0 0 0 7.92 0M390.18 133.61l-4.77-6.87h-5.27v6.87h-5.73v-24.67h10.72a13.64 13.64 0 0 1 5.71 1.09 8.15 8.15 0 0 1 5 7.86 8 8 0 0 1-5.08 7.79l5.54 7.93Zm-1.46-18.91a6.08 6.08 0 0 0-3.92-1.11h-4.66v8.6h4.67a6 6 0 0 0 3.92-1.13 4.39 4.39 0 0 0 .16-6.21l-.14-.14" transform="translate(-.02)"/><path class="cls-1" d="M411.51 113.59h-7.92v-4.65h21.57v4.65h-7.92v20.02h-5.73v-20.02z"/><path d="M94 171.29V160h4.5c2.08 0 4 .51 4 2.8a2.49 2.49 0 0 1-2.16 2.6 2.6 2.6 0 0 1 2.47 2.73c0 2.28-2 3.12-4.13 3.12Zm2.46-6.65h1.84c1.31 0 1.91-.49 1.91-1.36s-.54-1.38-1.88-1.38h-1.92Zm0 4.76h2c1.39 0 2-.56 2-1.52s-.74-1.47-2.11-1.47h-1.94Z" transform="translate(-.02)"/><path d="M113.99 171.3v-4.81l-3.91-6.52h2.58l2.6 4.41 2.61-4.41h2.55l-3.94 6.52v4.81h-2.49z"/><path d="M138.24 165.62c0-3.92 2.28-5.86 5.13-5.86a4.26 4.26 0 0 1 4.61 3.57l-2.37.69c-.36-1.3-.92-2.2-2.26-2.2-1.72 0-2.64 1.47-2.64 3.78s1 3.89 2.67 3.89c1.34 0 2-.84 2.4-2.38l2.35.52c-.55 2.28-1.9 3.87-4.76 3.87s-5.13-1.9-5.13-5.87" transform="translate(-.02)"/><path d="M156.72 171.3v-11.33h7.75v2.07h-5.24v2.45h3.8v1.97h-3.8v2.82h5.51v2.02h-8.02zM173.2 171.3v-11.33h2.51l4.76 7.22h.03v-7.22h2.3v11.33h-2.3l-4.96-7.3h-.04v7.3h-2.3zM194.45 171.3v-9.26h-3.38v-2.07h9.28v2.07h-3.4v9.26h-2.5zM208.61 171.3v-11.33h7.75v2.07h-5.24v2.45h3.8v1.97h-3.8v2.82h5.52v2.02h-8.03z"/><path d="M225.12 171.29V160h4.27c2.8 0 4.48 1 4.48 3.51a3 3 0 0 1-2.37 3.22l2.54 4.59h-2.65l-2.39-4.26h-1.46v4.27Zm2.46-6.2h1.71c1.47 0 2.13-.4 2.13-1.55s-.69-1.53-2.13-1.53h-1.71ZM253.6 171.29V160h4.13c2.43 0 4.64.64 4.64 3.67s-2.39 3.66-4.67 3.66h-1.58v4Zm2.49-5.95h1.7c1.56 0 2.14-.59 2.14-1.68s-.57-1.65-2.14-1.65h-1.67ZM268.6 171.29l4-11.37h2.4l4 11.37h-2.54l-.85-2.52h-3.81l-.89 2.52Zm3.79-4.33h2.68l-1.3-3.85ZM287.23 171.29V160h4.28c2.79 0 4.47 1 4.47 3.51a3 3 0 0 1-2.38 3.22l2.54 4.59h-2.64l-2.37-4.23h-1.47v4.27Zm2.46-6.2h1.71c1.46 0 2.13-.4 2.13-1.55s-.69-1.53-2.13-1.53h-1.71ZM304.13 165.62c0-3.92 2.29-5.86 5.14-5.86a4.27 4.27 0 0 1 4.61 3.57l-2.37.69c-.37-1.3-.92-2.2-2.26-2.2-1.72 0-2.64 1.47-2.64 3.78s.95 3.89 2.67 3.89c1.34 0 2-.84 2.4-2.38l2.35.52c-.55 2.28-1.91 3.87-4.76 3.87s-5.14-1.9-5.14-5.87M321.86 168.72l1.89-1.12a3.35 3.35 0 0 0 3.08 1.93c1.15 0 2-.43 2-1.3s-.81-1.23-2.3-1.64c-2-.57-4.16-1.08-4.16-3.45 0-2.11 1.66-3.38 4.1-3.38a5.13 5.13 0 0 1 4.52 2.31l-1.74 1.32a3.39 3.39 0 0 0-2.8-1.61c-1.06 0-1.64.46-1.64 1.14 0 .9.84 1.22 2.34 1.63 2 .53 4.11 1.16 4.11 3.5 0 1.82-1.38 3.45-4.55 3.45a5.11 5.11 0 0 1-4.84-2.79" transform="translate(-.02)"/><path class="cls-2" d="M189.11 23.4a26.94 26.94 0 0 0 16 17.7A26.92 26.92 0 0 0 193.44 0a26.91 26.91 0 0 0-4.33 23.43M215.63 31.34a18.68 18.68 0 0 0-.87 16.53 18.73 18.73 0 0 0 15.88-21.2 19.28 19.28 0 0 0-1.33-4.67 18.81 18.81 0 0 0-13.68 9.39M204 58.58a12.19 12.19 0 0 0 10 4.31 12.2 12.2 0 0 0-9.4-14.47 11.65 11.65 0 0 0-3.17-.25 12.1 12.1 0 0 0 2.65 10.44M147.17 77.68s21.77 8.66 61.16-1.82c44-11.74 69.72 8.43 69.72 8.43s-21.75-12.15-60.81-1.22c-44.47 12.39-70.05-5.35-70.05-5.35" transform="translate(-.02)"/></svg>