
<!-- Generator: visioncortex VTracer 0.6.4 -->
<svg version="1.1" xmlns="http://www.w3.org/2000/svg" viewBox="0 0 72 72" preserveAspectRatio="xMidYMid meet">
<path d="M0 0 C3.465 -0.083 6.93 -0.165 10.5 -0.25 C12.114 -0.305 12.114 -0.305 13.76 -0.36 C21.295 -0.447 26.187 1.12 32.172 5.641 C38.653 12.25 41.38 17.451 41.562 26.875 C41.471 35.046 39.623 40.937 34.168 47.055 C29.293 51.689 23.915 55 17 55 C17 51.7 17 48.4 17 45 C18.403 44.464 19.805 43.928 21.25 43.375 C25.696 41.411 27.749 39.409 30 35 C31.677 29.97 32.077 24.663 30.059 19.672 C27.684 15.653 25.438 12.737 21 11 C17.341 10.187 13.708 9.581 10 9 C10.495 16.92 10.495 16.92 11 25 C12.32 23.68 13.64 22.36 15 21 C17.359 20.391 17.359 20.391 19.75 20.25 C21.854 20.126 21.854 20.126 24 20 C23.01 23.96 22.02 27.92 21 32 C18.982 32.163 16.964 32.326 14.945 32.488 C12.605 32.874 12.605 32.874 11 36 C10.723 38.909 10.723 38.909 10.805 42.199 C10.811 43.408 10.818 44.616 10.824 45.861 C10.849 47.755 10.849 47.755 10.875 49.688 C10.884 50.962 10.893 52.236 10.902 53.549 C10.926 56.699 10.962 59.85 11 63 C7.04 63 3.08 63 -1 63 C-0.99 62.162 -0.979 61.325 -0.968 60.461 C-0.934 57.357 -0.909 54.252 -0.89 51.147 C-0.875 49.141 -0.85 47.135 -0.824 45.129 C-0.818 43.872 -0.811 42.615 -0.805 41.32 C-0.789 39.576 -0.789 39.576 -0.773 37.797 C-0.707 34.861 -0.707 34.861 -3 33 C-5.655 32.435 -8.291 32.262 -11 32 C-11.99 28.04 -12.98 24.08 -14 20 C-12.598 20.082 -11.195 20.165 -9.75 20.25 C-8.961 20.296 -8.172 20.343 -7.359 20.391 C-5 21 -5 21 -1 25 C-0.67 16.75 -0.34 8.5 0 0 Z " fill="#045E51" transform="translate(31,4)"/>
<path d="M0 0 C0 3.3 0 6.6 0 10 C-1.238 10.392 -2.475 10.784 -3.75 11.188 C-8.674 13.041 -10.721 15.698 -13.25 20.25 C-15.005 26.684 -14.613 32.412 -11.344 38.273 C-8.434 42.013 -4.421 43.526 0 45 C0 48.3 0 51.6 0 55 C-8.125 53.731 -13.634 51.288 -18.797 44.711 C-24.296 36.672 -24.821 29.56 -24 20 C-21.835 12.079 -16.596 6.661 -10 2 C-6.19 0.275 -4.207 0 0 0 Z " fill="#045E51" transform="translate(24,4)"/>
</svg>