<svg xmlns="http://www.w3.org/2000/svg" viewBox="0 0 210 110"><defs><style>.cls-2{fill:#e0e0e0}.cls-8{fill:#d7ffd0}.cls-9{fill:#00733a}</style></defs><path fill="#d7ebf1" d="M0 .25v109.5h209.35v-109.5h-209.35z"/><path d="M181 0c-1.87 3.76-5.6 18.38-7.77 19.51-1.7.87-2.66-.18-5.34.33a14.12 14.12 0 0 0-6.24 3.68c-50.65 47.56-61.76 74.34-63.79 86.48h112.14v-110z" class="cls-2"/><path d="M174.46 131.5v-121.79h-136.91" fill="none"/><path fill="#b6f0ac" d="M121.13 24.48l.43-.13-.14-.16-.53-.06-.32.35.43.33h.43zm1.81-.77l.16-.34-1.19.24-.14.25zm1.5-.34h.34l-.17-.25h-.88l-.48.25.33.24zm1.29-.18l.62-.08v-.11l-.38-.15-.49.07s-.16.43-.08.43a1.12 1.12 0 0 0 .33-.16m1.29-.34l.38-.1v-.16h-.53l-.24.26zm.86 0h.66l-.07-.39-.46-.11-.38.22zm19.69 63.93l2.64-1.34 1.9-.8 2.38.07.39-1.13 1.39.26.92.08 1.34-.34.16 1.06 1.27.87.63-.48.07-1.45-.7-.52-.26-1.83-.86-1.34.86-1.41 2.31-.61.79-.6.17-1.78.55-.35.78.63 1.11-.71.16-1.54-1-1.58-2.1-1.19-1.66-2-1.78-1.32-1.71-2.3-.88-1.26 1-1.75-1.43-1-.89-1.59-.49-1 .49-.36.7 1.58.28-.75 1.19-1.37 1.82-.48 1.66-1.29 2.45-1.17 3.48-1.43 1.9-.78-.12-.71v-.85l1.23.17.56 1.19.79.79 1.4-1.43.67-2.68-.64-2.45-1.2-.47-.06-1.28-.73-1.76.55-1.27.17-2.14-1-1.82.17-1.19.2-1.74-3-2.53 1-2 .8-2.3-.39-2.46-.58-2.68-2.06-.71-.08-.7 1.82-.24.24-.68-1.71-1.06-1.74-.87-2.8-.84-.71-1h.71l.87-.56 1.35.08.48-.4-1-.7.34-.8v-.56l-1 .56.32-1.58-1-.17-.79 1.55.24 1.39-.71.79-.39-.59h-1.34l-1.79.2-1.62 1.42-1.62.48-2 .24-1.72 1.88v1l-1.48-.39-1.43-1-.59.07-.87.49.16.63-.75.11v-.2l.28-.56-.87-.71.52-.51 1.32-1.12.11-2.06-.59.24-.52-.16-1 .79h-.79l-.21-.52-1.58-.59-.52.28-.55.87v-.35l.22-.91-.46-.21-1.17.32-.4-.2 1.11-1.07.2-1h-.67l-.68.83-1 1-.5-.07 1.08-.87.74-1 .43-1.3-.48-.6-.31.21-.56-.4-1.15-.39-.84.81-.16-.52-1.19-.35-2.4-.56-.67.87-.17 1.35.63.91.8.91.52.87.39.84-.71.24-1.39.32.21.35-.56.24.39.52 1.19-.28.75-.64-.21.84-.51.32-.21.51v.66l.64.07.58.39-.19.71-.91-.12.59 1.27 1.9.2.67.43 1.11 1.76 1.19 1-1.19-.57-1.54-1.94-1.43-.24-1.43.11-.84-.48-.49.28-.49 1.39-.17 1 .5 1.21-1.66-1.2-.48.46-.07.48.52.16-.53 1.32-.67-.47-.25-.62.35-.11.17-.35-.52-.88-.32-.75-4.5.32-1 1 .52.45-.17.19-.49-.13-.23.35.11.84-.19.3.07.36 1.62.07.63 1-.89-.71-.3.82.34.58-1.3 5-1.82.48v1.71l2.1.16.43 2-1.48 1.64h-1.15l.67 1-.54 1.29-2.18.07-1.62-.31-.83.83-.24.71.74 1.14 1.48 1.09-.63 2.6-.06.89-1 .74-.71.91 1.31 1.12-.6 1.34.66.67.65.75-.6.55.2.7h.6l.55.49v.53l.12.76-.67.17-1 1.65.2 1.66 1.21 1.43 1.13.39v1.62l-1.1.95.29 1.18.06.11 2.07 2.84 2.84.39 2.46.06 4.89 1.39-3.39 7-1.19 6.84.43.76 1-1 1 .25.95-.25 1.35.25.62.24.58-.49.52-.94h-1.11l-1.06-.8.82-1.09 2 1.51 1.4.18 1.19.7.75.17 1.78.91 1-1 2 1.43.48 1.55 1-1 .17-1.34 1.82-.71.9.52.84.43z"/><path fill="#84d194" d="M118.08 54.6l-.6.56.21.7h.59l.56.49v.53l.11.77-.67.17-.98 1.64-1.07-.18-1.39 2.32-.19 1.04 1.1 1.41-.31 1.38-.83.21-2.02-.76-.99-.62-1.34-.79-1.29-1.67-.29-.52.63-1.3-.43-.78-.8.59-.2 1.02-1.87.55-1.17-.03-.31-.59.67-.56-.67-.95.43-.91-1.03-1.17h-1.78l-.24.39-.51-.24v-1.07l-.82-.68-.76.17-.86-.56.08-1.7-.63-.78-.91.11-.92.64-1.53-1.38-.2-.76.2-.79-.44-1.03 2.72-1.74 2.82-.95-.16.67.39.52 1.38-.24.8.32.46.33 2.14-.65 1.36-.59.3-1.06h1.51l1.26.7 2.52 1.04 2.65 1.14.21 2.21-.36 1.03.32.87 1.86.12.64.68.65.73z"/><path fill="#93e399" d="M103.58 43.36l-1.3-.17-.52.43v.32h.92l1.06.63 1-.23zm1.82 0l-1.43-1h-1.22v.48l1.22.5 1.23.8.71-.29zm.39-1.52l-1.46-1-.28 1.29 1.34.87 1.66.6h1.82l.1-.63-1.29-.73zm4-13l-.39-.39-.46.71-.45.71.16.43.71-.17.43-.55v-.74zm1.62-1.41l-.63-.25-.75.4-.48.52.24.16.63-.56zm1.85-1.16l.39-.35-.24-.28-1 .32-.8.28-.39.59h.52l.83-.56zm1.89-.25l1-.38h-1.89l-.12.17.32.43zm1.6-.21l.39-.36h-.39zm1.36-.37l.75-.17h-.71l-.71.17v.35zm1.12-.15l.87-.14v-.46l-1 .32zm-5.34 11.75l1.66-1.43-.4-.95-1.11-.63-1.43.91-1.34 1.54v.75l1.58.52zm1.78-2.26l-.11 1.58-1.66 1-.52 1-3.16-1.11-.48-.68h.87l.39-.8-.27-1.43 1 .08.41-1.12-1.14-.5-.2-1.78-.17.05 2-1.34.07 1.85.67.71 1.22-.08-.39 1.47.6.55zm8.54-6l-1.15-1.15-1.5-1.86-5.22.71-3.16 1.58-.34 1.12-2.39 1.92-1.06.29-.56-.71-.8 2.76-1.66 5.06-1.7 2.18 1.7 1 1.43.31 1.59.72-.18 1.14-.9-.14h-2l-2.66 1.09.35.6.13.24-1.25-.87-1.82-.52-1 .88.89 1 2.17.71.12-.41 1.26.21.29.53-1.1-.17-1.3.29-2.28-.48-.17.67.39.52 1.39-.24.8.32.48.33 2.14-.65 1.35-.59.3-1.07h1.51l1.26.71 2.53 1 2.65 1.19.2 2.21-.35 1 .31.87 1.86.11.6-1.34-1.31-1.11.71-.91 1-.75.06-.88.63-2.62-1.45-1.11-.74-1.14.24-.71.83-.83 1.62.31 2.18-.07.54-1.29-.67-1h1.15l1.51-1.6-.18-2-2.1-.16v-1l1.82-.48z"/><path d="M119.02 66.7l-1.31-.47-1.26.39-1.01-1.19.31-1.38-1.1-1.41.19-1.04 1.39-2.33 1.07.19.18 1.67 1.21 1.43 1.14.39.01 1.62-1.09.95.13.94" class="cls-2"/><path d="M120.7 97.96l.39-1.66-.9-1.21-2.73.74.07 1.11-.87.74-1.3.28 1.43-1.69-.44-2.3 2.1-1.66-.02-1.56 1.28-.81 2.42-2.37-.47-.95.23-1.03h.4l1.77.52 2.69-.71 1.17-6.85 3.4-6.98-4.89-1.4-2.46-.07-2.84-.4-2.1-3-1.31-.47-1.25.39-1.02-1.19-.84.21-2.01-.76-1-.64-1.33-.78-1.29-1.66-.29-.52.63-1.3-.44-.78-.78.59-.21 1.02-1.88.55-1.15-.03-.32-.59.67-.56-.67-.95.43-.91-1.02-1.17h-1.79l-.24.38-.5-.23v-1.07l-.84-.68-.75.17-.87-.56.09-1.7-.63-.79-.91.11-.91.63-1.55-1.36-.19-.76.19-.79-.43-1.03-3.72 1.19h-1.31l-1.34.79-.48 3.87-.32 2.91-1.81 2.31-4.04.63-2.68 1.11-1.26 1.65v.95l2.37.24-4.68 1.5-.62-.56-2.84-.36h-2.43l-.42.45-.28-.44.7-.67-.62-.9-.98.24-.98-.12-1.71-.32v1.53l1.04 1.28.82 1.34.54 1.38v3.24l.61 1.63-.99.28-1.35.07-.54-.63-1.36.98-.87-.42h-1.22l-1.18 1.09-.83-.28-1.39-1.57-.39-.84-1.1-.54-1.47.35-.99.23-.16 1.11-1.1.32-1.18-.52-2.86.37-1.81.82-.59 1.38 1.06.6 2.14.2.19.43h-2.01l.39.67.8.24.63.28-.35.79-2.46.4 1.38.3.8.87-.09 1.23 1.07.08.67-.79 1.04-.09 1.02 1.04 1.61.15 1.19.36.88.68 1.3.71 1.1-.56.87.52-.78.15.26.64 1.23-.32 1.15.32-.2.59.01 1.23 1.53.22.23 1.28.84.6-.08 1.26-.67.94 1.39 1.3 2.18 2.81 2.12.36.84 1.3.79 2.26 50.7-.59-.87-1.04zM120.78 98.1l.84.53.99 1.99-1.83.69v1.14l2.75 2.68-.77 1.68-2.92 1.15 1.4 2.04h-51.21l10.85-5.95 39.9-5.95zM70.87 99.59l-1.21 2.35 3.1 2.69 1.03 3.31-.48.26-1.12-2.71-1.61-1.6-.55 6.11h24.74l20.98-10.01-4.01-6.36-40.87 5.96z" class="cls-8"/><circle cx="76.05" cy="90.48" r="1" class="cls-9"/><circle cx="87.63" cy="85.06" r="1" class="cls-9"/><circle cx="80.98" cy="73.82" r="1" class="cls-9"/><circle cx="92.95" cy="72.82" r="1" class="cls-9"/><circle cx="98.45" cy="66.1" r="1" class="cls-9"/><circle cx="97.23" cy="48.53" r="1" class="cls-9"/><circle cx="102.76" cy="43.14" r="1" class="cls-9"/><circle cx="115.59" cy="57.51" r="1" class="cls-9"/><circle cx="122.66" cy="58.04" r="1" class="cls-9"/><circle cx="122.66" cy="64.85" r="1" class="cls-9"/><circle cx="118.24" cy="74.82" r="1" class="cls-9"/><circle cx="140.79" cy="83.04" r="1" class="cls-9"/><circle cx="114.59" cy="51.47" r="1" class="cls-9"/><circle cx="112.31" cy="49.93" r="1" class="cls-9"/><circle cx="110.18" cy="48.25" r="1" class="cls-9"/><circle cx="114.19" cy="47.25" r="1" class="cls-9"/><circle cx="110.78" cy="46.53" r="1" class="cls-9"/><circle cx="116.36" cy="46.25" r="1" class="cls-9"/><circle cx="115.59" cy="43.6" r="1" class="cls-9"/><circle cx="132.75" cy="48.25" r="1" class="cls-9"/><circle cx="112.75" cy="37.41" r="1" class="cls-9"/><circle cx="107.51" cy="35.93" r="1" class="cls-9"/><circle cx="120.46" cy="33.93" r="1" class="cls-9"/><circle cx="122.66" cy="33.24" r="1" class="cls-9"/><circle cx="130.3" cy="24.73" r="1" class="cls-9"/><circle cx="140.85" cy="27.22" r="1" class="cls-9"/></svg>