<svg width="36" height="26" viewBox="0 0 36 26" fill="none" xmlns="http://www.w3.org/2000/svg">
<rect x="0.5" y="0.5" width="35" height="25" rx="1.5" fill="white" stroke="#E9E9E9"/>
<path d="M11.7211 20.8826V19.8247C11.7211 19.4721 11.4846 19.1783 11.1298 19.1783H11.0707C10.8342 19.1783 10.5977 19.2958 10.4795 19.4721C10.3613 19.2958 10.1248 19.1783 9.94739 19.1783C9.77002 19.1783 9.59265 19.2958 9.47441 19.4133V19.1783H9.06055V20.8826H9.41528V20.001C9.41528 19.7659 9.53353 19.5896 9.77002 19.5309H9.82914C10.0656 19.5309 10.1839 19.7072 10.1839 20.001V20.9413H10.5386V20.001C10.5386 19.7659 10.6569 19.5896 10.8934 19.5309H10.9525C11.189 19.5309 11.3072 19.7072 11.3072 20.001V20.9413L11.7211 20.8826ZM17.2195 19.1783H16.6283V18.6493H16.2735V19.1783H15.9188V19.5309H16.2735V20.2949C16.2735 20.7062 16.4509 20.8826 16.8648 20.8826C17.0421 20.8826 17.1604 20.8238 17.3378 20.765L17.2195 20.4712C17.1013 20.5299 16.983 20.5887 16.9239 20.5887C16.7465 20.5887 16.6874 20.4712 16.6874 20.2949V19.5309H17.2786L17.2195 19.1783ZM20.353 19.1783C20.1757 19.1783 19.9983 19.2958 19.88 19.4133V19.237H19.5253V20.9413H19.88V20.001C19.88 19.7072 19.9983 19.5896 20.2348 19.5896C20.2939 19.5896 20.4121 19.5896 20.4713 19.6484L20.5895 19.2958C20.4713 19.1783 20.4121 19.1195 20.353 19.1783ZM15.6232 19.3546C15.3867 19.237 15.1502 19.1783 14.9137 19.1783C14.4999 19.1783 14.2042 19.4133 14.2042 19.7072C14.2042 20.001 14.3816 20.1773 14.7955 20.1773H14.9728C15.1502 20.1773 15.2685 20.2361 15.2685 20.3536C15.2685 20.4712 15.1502 20.5299 14.9137 20.5299C14.7363 20.5299 14.4999 20.4712 14.3816 20.3536L14.2042 20.6475C14.4407 20.8238 14.6772 20.8826 14.9137 20.8826C15.3867 20.8826 15.6823 20.6475 15.6823 20.3536C15.6823 20.0598 15.4458 19.8835 15.0911 19.8247H14.9137C14.7363 19.8247 14.6181 19.7659 14.6181 19.6484C14.6181 19.5309 14.7363 19.4721 14.9728 19.4721C15.1502 19.4721 15.3276 19.5309 15.5049 19.5896L15.6232 19.3546ZM25.4376 19.1195C25.2602 19.1195 25.0829 19.1783 24.9646 19.3546V19.1783H24.6099V20.8238H24.9646V19.8835C24.9646 19.5896 25.0829 19.4721 25.3193 19.4721C25.3785 19.4721 25.4967 19.4721 25.5558 19.5309L25.6741 19.1783C25.615 19.1783 25.4967 19.1195 25.4376 19.1195ZM20.7078 20.001C20.7078 20.4712 21.0625 20.8826 21.5355 20.8826H21.5946C21.8311 20.8826 22.0085 20.8238 22.1858 20.7063L22.0085 20.4124C21.8902 20.5299 21.7128 20.5299 21.5355 20.5887C21.2399 20.5887 21.0034 20.3536 21.0034 20.0598C21.0034 19.7659 21.2399 19.5309 21.5355 19.5309C21.7128 19.5309 21.8311 19.5896 22.0085 19.7072L22.1858 19.4133C22.0085 19.2958 21.8311 19.237 21.5946 19.237C21.1216 19.237 20.7078 19.5896 20.7078 20.0598V20.001ZM24.1369 20.001V19.1783H23.7821V19.3546C23.6639 19.1783 23.4865 19.1195 23.25 19.1195C22.7771 19.1195 22.3632 19.5309 22.3632 20.001C22.3632 20.4712 22.7771 20.8826 23.25 20.8826C23.4274 20.8826 23.6639 20.8238 23.7821 20.6475V20.8238H24.1369V20.001ZM22.7771 20.001C22.7771 19.7072 23.0135 19.4721 23.3092 19.5309C23.6048 19.5309 23.8413 19.7659 23.7821 20.0598C23.7821 20.3536 23.5457 20.5887 23.25 20.5299C23.0136 20.5299 22.7771 20.3536 22.7771 20.001ZM18.3428 19.1195C17.8699 19.1195 17.456 19.5309 17.456 20.001C17.456 20.4712 17.8699 20.8826 18.3428 20.8826C18.5793 20.8826 18.8749 20.8238 19.0523 20.6475L18.8749 20.3536C18.7567 20.4712 18.5793 20.5299 18.402 20.5299C18.1655 20.5299 17.929 20.3536 17.8699 20.1186H19.1114V20.001C19.1706 19.5896 18.8158 19.1783 18.402 19.1195H18.3428ZM18.3428 19.4721C18.5793 19.4721 18.7567 19.6484 18.7567 19.8835H17.8699C17.8699 19.6484 18.1063 19.4721 18.3428 19.4721ZM27.566 20.001V18.473H27.2113V19.3546C27.093 19.1783 26.8565 19.1195 26.6792 19.1195C26.2062 19.1195 25.7923 19.5309 25.7923 20.001C25.7923 20.4712 26.2062 20.8826 26.6792 20.8826C26.9157 20.8826 27.093 20.8238 27.2113 20.6475V20.8238H27.566V20.001ZM28.1572 20.6475H28.2164C28.2164 20.6475 28.2755 20.6475 28.2755 20.7063L28.3346 20.765C28.3346 20.8238 28.3346 20.8238 28.3346 20.8826C28.3346 20.8826 28.3346 20.9413 28.2755 20.9413L28.2164 21.0001H28.1572C28.0981 21.0001 28.039 20.9413 27.9799 20.8826C27.9799 20.8238 27.9799 20.765 27.9799 20.765C27.9799 20.7063 28.039 20.7063 28.0981 20.6475H28.1572ZM28.1572 20.9413C28.2164 20.9413 28.2164 20.9413 28.2755 20.9413C28.3346 20.8826 28.3346 20.8238 28.2755 20.765C28.2755 20.765 28.2755 20.765 28.2164 20.765H28.0981C28.0981 20.765 28.0981 20.765 28.039 20.765C27.9799 20.8238 27.9799 20.8826 28.039 20.9413C28.039 20.9413 28.0981 20.9413 28.1572 20.9413C28.1572 20.9413 28.0981 20.9413 28.1572 20.9413ZM28.1572 20.7063C28.2164 20.7063 28.2164 20.7063 28.1572 20.7063L28.2164 20.8238H28.1572V20.7063V20.8238V20.7063ZM26.1471 20.001C26.1471 19.7072 26.3836 19.4721 26.6792 19.4721C26.9748 19.4721 27.2113 19.7072 27.2113 20.001C27.2113 20.2949 26.9748 20.5299 26.6792 20.5299C26.3836 20.5299 26.1471 20.2949 26.1471 20.001ZM13.7313 20.001V19.1783H13.3765V19.3546C13.2583 19.1783 13.0809 19.1195 12.8444 19.1195C12.3714 19.1195 11.9576 19.5309 11.9576 20.001C11.9576 20.4712 12.3714 20.8826 12.8444 20.8826C13.0218 20.8826 13.2583 20.8238 13.3765 20.6475V20.8238H13.7313V20.001ZM12.3714 20.001C12.3714 19.7659 12.6079 19.5309 12.8444 19.5896C13.0809 19.5896 13.3174 19.8247 13.2583 20.0598C13.2583 20.2949 13.0218 20.5299 12.7853 20.4712C12.5488 20.4712 12.3714 20.2949 12.3714 20.001Z" fill="#231F20"/>
<path d="M21.0624 6.42505H15.5049V16.357H21.0624V6.42505Z" fill="#FF5F00"/>
<path d="M15.86 11.3622C15.86 9.42284 16.7469 7.601 18.2841 6.36685C15.5644 4.25116 11.544 4.72131 9.35649 7.48346C7.16895 10.2456 7.70105 14.1831 10.4207 16.3576C12.7265 18.1794 15.9783 18.1794 18.2841 16.3576C16.7469 15.1235 15.86 13.3016 15.86 11.3622Z" fill="#EB001B"/>
<path d="M28.5711 11.3619C28.5711 14.8292 25.7332 17.6502 22.1858 17.6502C20.7669 17.6502 19.407 17.18 18.2837 16.2985C21.0625 14.124 21.5355 10.1865 19.3479 7.42433C19.0523 7.01294 18.6976 6.66033 18.2837 6.36648C21.0625 4.19202 25.0237 4.66218 27.2112 7.42433C28.0981 8.59971 28.5711 9.9514 28.5711 11.3619Z" fill="#F79E1B"/>
<path d="M27.921 15.2408V15.0645H27.9801V15.0057H27.8027V15.0645H27.921V15.2408ZM28.3348 15.2408V15.0057H28.2757L28.2166 15.182L28.1575 15.0057H28.0983V15.2408H28.1575V15.0645L28.2166 15.2408H28.2757L28.3348 15.0645V15.2408Z" fill="#F79E1B"/>
</svg>
