<svg width="38" height="28" viewBox="0 0 38 28" fill="none" xmlns="http://www.w3.org/2000/svg">
<rect x="0.5" y="0.5" width="37" height="27" rx="2.5" fill="white" stroke="#E9E9E9"/>
<path d="M21.8009 17.7044H20.5553C20.5136 17.7048 20.4733 17.7199 20.4415 17.747C20.4096 17.7742 20.3881 17.8117 20.3806 17.8531L19.875 21.0777C19.8723 21.0909 19.8724 21.1045 19.8752 21.1176C19.878 21.1308 19.8835 21.1432 19.8912 21.1541C19.899 21.165 19.9089 21.1742 19.9204 21.181C19.9318 21.1879 19.9445 21.1923 19.9577 21.1939H20.615C20.6442 21.1931 20.6722 21.182 20.694 21.1625C20.7159 21.1429 20.7302 21.1162 20.7345 21.087L20.877 20.1578C20.8845 20.1163 20.906 20.0788 20.9379 20.0517C20.9698 20.0245 21.01 20.0095 21.0517 20.0091H21.4424C21.6082 20.0291 21.7763 20.0157 21.937 19.9697C22.0977 19.9237 22.2478 19.846 22.3786 19.741C22.5094 19.636 22.6183 19.5058 22.699 19.3581C22.7797 19.2103 22.8307 19.0478 22.849 18.88C22.849 18.88 22.849 18.8382 22.849 18.8149C22.8832 18.6761 22.8869 18.5313 22.8599 18.3909C22.833 18.2504 22.7759 18.1176 22.6927 18.0018C22.5728 17.8921 22.4315 17.8089 22.278 17.7577C22.1244 17.7065 21.9619 17.6883 21.8009 17.7044ZM21.9434 18.88C21.8745 19.3446 21.5343 19.3446 21.2034 19.3446H21.0149L21.1574 18.499C21.1608 18.4743 21.1729 18.4518 21.1915 18.4355C21.2101 18.4193 21.2339 18.4105 21.2585 18.4107H21.3459C21.5711 18.4107 21.8055 18.4107 21.8929 18.5408C21.9264 18.5914 21.9486 18.6488 21.9581 18.7089C21.9677 18.7691 21.9642 18.8306 21.948 18.8893L21.9434 18.88Z" fill="#009BDE"/>
<path d="M12.9246 17.7045H11.679C11.6373 17.7049 11.597 17.7199 11.5652 17.7471C11.5333 17.7742 11.5118 17.8117 11.5043 17.8531L11.0033 21.0778C10.9999 21.0903 10.9991 21.1034 11.001 21.1163C11.003 21.1291 11.0076 21.1414 11.0145 21.1524C11.0214 21.1633 11.0306 21.1727 11.0413 21.1798C11.052 21.187 11.0641 21.1918 11.0768 21.1939H11.7019C11.7431 21.1934 11.7827 21.1781 11.8138 21.1509C11.8449 21.1237 11.8655 21.0863 11.872 21.0453L12.0099 20.1764C12.0174 20.1349 12.0389 20.0974 12.0708 20.0703C12.1027 20.0431 12.1429 20.0281 12.1846 20.0277H12.5661C12.9018 20.067 13.2393 19.9703 13.5046 19.7586C13.77 19.547 13.9415 19.2378 13.9819 18.8986C13.9819 18.8986 13.9819 18.8614 13.9819 18.8382C14.0161 18.6993 14.0198 18.5546 13.9928 18.4141C13.9658 18.2737 13.9087 18.1409 13.8256 18.0251C13.7054 17.9116 13.5634 17.8246 13.4083 17.7694C13.2532 17.7143 13.0886 17.6921 12.9246 17.7045ZM13.0671 18.88C12.9982 19.3447 12.658 19.3447 12.3271 19.3447H12.1386L12.2719 18.499C12.2753 18.4744 12.2874 18.4518 12.306 18.4356C12.3246 18.4193 12.3484 18.4105 12.373 18.4107H12.4604C12.6856 18.4107 12.92 18.4107 13.0074 18.5408C13.0396 18.5903 13.0615 18.6459 13.0717 18.7042C13.082 18.7625 13.0804 18.8223 13.0671 18.88Z" fill="#002F87"/>
<path d="M16.6433 18.8661H16.0458C16.0212 18.8658 15.9974 18.8747 15.9787 18.8909C15.9601 18.9072 15.948 18.9297 15.9447 18.9544L15.9171 19.1263L15.8757 19.0659C15.7853 18.9752 15.6762 18.9057 15.5563 18.8623C15.4364 18.819 15.3084 18.8028 15.1816 18.815C14.8544 18.8242 14.541 18.9508 14.2977 19.1721C14.0543 19.3934 13.8967 19.6951 13.8532 20.023C13.8196 20.1848 13.8219 20.3521 13.8601 20.5128C13.8982 20.6735 13.9712 20.8236 14.0738 20.9523C14.1678 21.0584 14.2847 21.1413 14.4154 21.1944C14.5461 21.2476 14.6872 21.2697 14.8277 21.259C14.9792 21.2597 15.1292 21.2296 15.269 21.1706C15.4088 21.1115 15.5354 21.0246 15.6413 20.9152L15.6137 21.0824C15.6111 21.0962 15.6113 21.1104 15.6143 21.1241C15.6174 21.1378 15.6232 21.1507 15.6314 21.1621C15.6396 21.1734 15.65 21.1829 15.662 21.19C15.6739 21.1971 15.6873 21.2016 15.701 21.2032H16.2434C16.2842 21.2038 16.3237 21.1895 16.3549 21.1631C16.3861 21.1367 16.4069 21.0998 16.4135 21.0592L16.7353 18.9962C16.7408 18.9709 16.7361 18.9445 16.7223 18.9227C16.7085 18.9009 16.6867 18.8856 16.6617 18.88L16.6433 18.8661ZM15.8114 20.0416C15.7898 20.2042 15.7091 20.3527 15.585 20.4584C15.4609 20.5641 15.3024 20.6192 15.1403 20.6131C15.0802 20.6196 15.0195 20.614 14.9615 20.5967C14.9036 20.5794 14.8496 20.5507 14.8027 20.5123C14.7557 20.4739 14.7167 20.4265 14.6879 20.3729C14.659 20.3192 14.6409 20.2603 14.6346 20.1996C14.6208 20.1463 14.6208 20.0903 14.6346 20.037C14.6624 19.8746 14.7477 19.728 14.8746 19.6245C15.0015 19.5211 15.1612 19.4678 15.3241 19.4748C15.3842 19.4676 15.4451 19.4726 15.5033 19.4893C15.5614 19.506 15.6158 19.5342 15.6632 19.5721C15.7106 19.6101 15.7501 19.6572 15.7795 19.7107C15.8089 19.7641 15.8275 19.8229 15.8343 19.8837C15.8434 19.9437 15.8434 20.0048 15.8343 20.0649L15.8114 20.0416Z" fill="#002F87"/>
<path d="M25.5148 18.866H24.9173C24.8927 18.8658 24.8689 18.8746 24.8502 18.8909C24.8316 18.9071 24.8195 18.9297 24.8162 18.9543V19.1262L24.7748 19.0658C24.6818 18.9719 24.569 18.9005 24.4448 18.857C24.3206 18.8136 24.1882 18.7992 24.0577 18.8149C23.7305 18.8241 23.4171 18.9507 23.1737 19.172C22.9304 19.3933 22.7728 19.695 22.7293 20.023C22.6953 20.185 22.6979 20.3527 22.7369 20.5136C22.7759 20.6745 22.8503 20.8245 22.9545 20.9523C23.0481 21.0577 23.1642 21.1402 23.294 21.1933C23.4239 21.2465 23.564 21.2689 23.7038 21.2589C23.8555 21.2585 24.0056 21.2275 24.1453 21.1676C24.2851 21.1078 24.4115 21.0203 24.5174 20.9104V21.0777C24.5133 21.1047 24.5196 21.1323 24.535 21.1548C24.5503 21.1772 24.5737 21.1929 24.6001 21.1985H25.1517C25.1932 21.2002 25.2339 21.1865 25.266 21.16C25.2982 21.1334 25.3197 21.0959 25.3264 21.0545L25.6481 18.9915C25.6536 18.9662 25.6489 18.9398 25.6352 18.918C25.6214 18.8962 25.5996 18.8809 25.5746 18.8753H25.5148V18.866ZM24.6829 20.0416C24.6613 20.2041 24.5806 20.3527 24.4565 20.4583C24.3324 20.564 24.1739 20.6192 24.0118 20.6131C23.9517 20.6195 23.891 20.6139 23.833 20.5966C23.7751 20.5793 23.7211 20.5506 23.6742 20.5122C23.6272 20.4738 23.5882 20.4264 23.5594 20.3728C23.5305 20.3191 23.5124 20.2603 23.5061 20.1995C23.4967 20.1458 23.4967 20.0907 23.5061 20.0369C23.5316 19.8778 23.613 19.7332 23.7355 19.6299C23.8579 19.5266 24.0132 19.4715 24.1726 19.4747C24.2463 19.4704 24.3201 19.4827 24.3885 19.5109C24.4568 19.539 24.5182 19.5822 24.5679 19.6373C24.6152 19.6965 24.6488 19.7656 24.6663 19.8395C24.6838 19.9135 24.6847 19.9904 24.6691 20.0648L24.6829 20.0416Z" fill="#009BDE"/>
<path d="M19.8151 18.8661H19.2175C19.1895 18.8677 19.1621 18.8756 19.1374 18.8893C19.1128 18.9029 19.0915 18.922 19.075 18.9451L18.2477 20.1718L17.8983 19.0102C17.8851 18.9761 17.8625 18.9466 17.8332 18.9251C17.8038 18.9037 17.769 18.8913 17.7328 18.8893H17.1629C17.1496 18.8887 17.1363 18.8907 17.1238 18.8953C17.1113 18.8999 17.0998 18.9069 17.09 18.916C17.0801 18.925 17.0722 18.936 17.0666 18.9481C17.0609 18.9603 17.0577 18.9735 17.0571 18.9869V19.0102L17.719 20.9663L17.0985 21.8491C17.0797 21.8683 17.0691 21.8942 17.0691 21.9211C17.0691 21.9481 17.0797 21.974 17.0985 21.9932C17.1078 21.9977 17.118 22.0001 17.1284 22.0001C17.1387 22.0001 17.1489 21.9977 17.1583 21.9932H17.7558C17.784 21.9949 17.8121 21.989 17.8372 21.9759C17.8623 21.9628 17.8834 21.9431 17.8983 21.9188L19.9208 19.0102C19.932 18.9859 19.9349 18.9586 19.929 18.9326C19.9232 18.9065 19.909 18.8831 19.8886 18.8661C19.8645 18.8598 19.8392 18.8598 19.8151 18.8661Z" fill="#002F87"/>
<path d="M26.2134 17.7927L25.7078 21.0778C25.7037 21.1048 25.71 21.1324 25.7253 21.1548C25.7407 21.1773 25.7641 21.193 25.7905 21.1986H26.3237C26.3648 21.198 26.4045 21.1828 26.4356 21.1556C26.4667 21.1284 26.4873 21.091 26.4938 21.0499L26.9994 17.8253C27.0021 17.7983 26.9946 17.7713 26.9784 17.7498C26.9622 17.7282 26.9385 17.7137 26.9121 17.7091H26.3237C26.2987 17.7083 26.2741 17.7161 26.254 17.7313C26.234 17.7465 26.2196 17.7682 26.2134 17.7927Z" fill="#009BDE"/>
<path d="M22.8811 8.66231C22.9573 8.33794 22.9554 7.99982 22.8754 7.67639C22.7954 7.35296 22.6397 7.05367 22.4215 6.80373C21.9618 6.2508 21.0793 6.01383 19.9761 6.01383H16.7584C16.6483 6.0124 16.5412 6.05102 16.4569 6.12266C16.3725 6.1943 16.3164 6.29419 16.2988 6.40413L15.0025 14.9815C14.996 15.0175 14.9966 15.0546 15.0044 15.0904C15.0123 15.1262 15.0271 15.16 15.0481 15.1899C15.0691 15.2198 15.0958 15.2451 15.1267 15.2644C15.1576 15.2837 15.1919 15.2965 15.2278 15.3021H17.2549L17.117 16.1756C17.111 16.2068 17.1114 16.2388 17.1179 16.2699C17.1245 16.3009 17.1371 16.3303 17.1551 16.3563C17.1731 16.3823 17.1961 16.4044 17.2227 16.4213C17.2493 16.4381 17.279 16.4494 17.31 16.4544H19.0246C19.1203 16.4544 19.2128 16.4197 19.2853 16.3566C19.3578 16.2935 19.4056 16.2062 19.4199 16.1106V16.0269L19.7324 14.0057L19.7784 13.8989C19.7936 13.8036 19.8416 13.7169 19.9139 13.6539C19.9863 13.591 20.0783 13.556 20.1737 13.555H20.4219C22.0399 13.555 23.304 12.8906 23.6763 10.9716C23.7739 10.6438 23.7944 10.2975 23.7361 9.96031C23.6779 9.62312 23.5425 9.30434 23.3408 9.02938C23.2108 8.8824 23.0549 8.76109 22.8811 8.6716" fill="#009BDE"/>
<path d="M22.8811 8.66231C22.9573 8.33794 22.9554 7.99982 22.8754 7.67639C22.7954 7.35296 22.6397 7.05367 22.4215 6.80373C21.9618 6.2508 21.0793 6.01383 19.9761 6.01383H16.7584C16.6483 6.0124 16.5412 6.05102 16.4569 6.12266C16.3725 6.1943 16.3164 6.29419 16.2988 6.40413L15.0025 14.9815C14.996 15.0175 14.9966 15.0546 15.0044 15.0904C15.0123 15.1262 15.0271 15.16 15.0481 15.1899C15.0691 15.2198 15.0958 15.2451 15.1267 15.2644C15.1576 15.2837 15.1919 15.2965 15.2278 15.3021H17.2549L17.7513 12.11V12.2122C17.7689 12.1022 17.825 12.0024 17.9094 11.9307C17.9938 11.8591 18.1008 11.8205 18.211 11.8219H19.1533C20.9919 11.8219 22.449 11.0599 22.8719 8.86675C22.8771 8.80206 22.8894 8.73815 22.9087 8.67625" fill="#022169"/>
<path d="M18.2845 8.67175C18.2987 8.57566 18.3463 8.48781 18.4187 8.42396C18.4912 8.3601 18.5837 8.32441 18.6798 8.32326H21.1942C21.4726 8.32256 21.7507 8.34275 22.0262 8.38367C22.0914 8.39315 22.1559 8.40712 22.2192 8.42548L22.4169 8.4766L22.5364 8.50912C22.6555 8.55189 22.7722 8.60153 22.8857 8.65781C22.9619 8.33344 22.96 7.99532 22.88 7.67189C22.8 7.34845 22.6443 7.04917 22.4261 6.79923C21.9434 6.2463 21.0609 6.00004 19.9531 6.00004H16.7355C16.6253 5.99861 16.5183 6.03723 16.4339 6.10886C16.3495 6.1805 16.2934 6.28039 16.2758 6.39034L15.0025 14.9816C14.996 15.0177 14.9966 15.0547 15.0044 15.0905C15.0123 15.1263 15.0271 15.1601 15.0481 15.19C15.0691 15.2199 15.0958 15.2453 15.1267 15.2645C15.1576 15.2838 15.1919 15.2966 15.2278 15.3022H17.2549L17.7513 12.1101L18.2845 8.67175Z" fill="#002F87"/>
</svg>
