<svg xmlns="http://www.w3.org/2000/svg" xml:space="preserve" x="0" y="0" version="1.1" viewBox="0 0 60 60"><path fill="#3d4246" d="M19.1 26.9c0-3.1-2.5-5.5-5.5-5.5a5.5 5.5 0 0 0-5.5 5.5c0 3.1 2.5 5.5 5.5 5.5s5.5-2.5 5.5-5.5zM11.7 42.7c.3 0 .7-.2.8-.5.2-.4 0-1-.5-1.1l-6-2.5c-.4-.2-1 0-1.1.5-.2.4 0 1 .5 1.1l6 2.5h.3zM16.9 47.4l-8.4-3.5c-.4-.2-1 0-1.1.5-.2.4 0 1 .5 1.1l8.4 3.5.3.1c.3 0 .7-.2.8-.5.1-.5-.1-1-.5-1.2zM35.1 49.3l-6.2 1.9 7 6c.5.4 1.2.7 1.8.7.8 0 1.5-.3 2.1-1 1-1.2.9-2.9-.3-3.9l-4.4-3.7z" /><path fill="#3d4246" d="M55.4 11.4c-.1-.4-.5-.6-.8-.5-.1 0-10.1 2.2-20.2 2.2a3.4 3.4 0 0 0-3.3-2.4c-1.4 0-2.6.8-3.1 2A40.5 40.5 0 0 1 8.8 2.3c-.3-.3-.7-.3-1 0-.3.3-.3.7 0 1 .4.4 9.1 9 19.9 10.8 0 1.6 1.2 3 2.7 3.3v9h-.3l-.5.3-5.3 4.5-7.5 1.7c-3.1.9-4.9 3.8-2.5 7 1.6 2.2 5.4 6.9 7.3 9.1 1.3 1.5 2.3 1.8 5.7.8l8.4-2.6 6.4 5.5c.5.4 1.2.7 1.8.7.8 0 1.5-.3 2.1-1 1-1.2.9-2.9-.3-3.9L38.1 42a3 3 0 0 0-2.6-.5l-3.8 1.2v-12l.7-.7a2.2 2.2 0 0 0-.7-3.8v-8.9a3.5 3.5 0 0 0 2.7-2.9c10.2 0 20.2-2.3 20.4-2.3.4 0 .7-.4.6-.7zM22.9 36.1l3.6-.9 3.8-3.3v11.3l-1.7.4-5.7-7.5z" /></svg>