<svg xmlns="http://www.w3.org/2000/svg"><path fill="#3d4246" d="M34 31c0-.6-1-1-2.8-1.2l-.2.4a2.5 2.5 0 0 1-2.3 1.7 2.7 2.7 0 0 1-.8-.1 2.5 2.5 0 0 1-1.7-2H26l-.6.1-.3.7a2.5 2.5 0 0 1-4.3.2c-1.6.5-2.5 1-2.5 1.6 0 .8 2.2 1.3 5 1.3 1 0 2 0 3-.2 4.4-.4 7.9-1.6 7.8-2.6Z" /><path fill="#3d4246" d="m17.9 11.4 3.4-1.5v6.7a4 4 0 0 0 .7 2.2l2.8 3.9-3.3 6a1.6 1.6 0 0 0 .7 2.1 1.7 1.7 0 0 0 .7.2 1.6 1.6 0 0 0 1.4-.8l3.7-6.9a1.6 1.6 0 0 0-.1-1.7L25 17.8l4.2 4.9-2.1 6.2a1.6 1.6 0 0 0 1 2 1.6 1.6 0 0 0 .5.1 1.6 1.6 0 0 0 1.5-1l2.5-7.1a1.5 1.5 0 0 0-.3-1.6l-4-4.8v-6.2l2.9 1.8a1.3 1.3 0 0 0 .6.2h4l.8-2.4-4.3-.1-4.8-2.9a3 3 0 0 0-1.6-.4h-2.5a3 3 0 0 0-1.2.2l-4.8 2.1-3.7-2.3a1.3 1.3 0 0 0-1.7.4 1.2 1.2 0 0 0 .4 1.7l4.2 2.7a1.2 1.2 0 0 0 1.2 0Zm7.5-6a2.7 2.7 0 1 0-2.8-2.7 2.8 2.8 0 0 0 2.8 2.8Zm22 7.7-6.5-1.6-1.7-3.2a.7.7 0 0 0-1.2.1l-1.6 5a.7.7 0 0 0 1 .9l3.2-1.7 6.5 1.6h.1a.5.5 0 0 0 .6-.4.6.6 0 0 0-.4-.7Zm-9.3-.7.7-2 .7 1.3ZM41.6 40C29.8 36.6 23 41.6 23 41.6a23.6 23.6 0 0 1 15.3.8C49.7 46.9 60 40.6 60 40.6s-5.7 3-18.4-.6Z" /><path fill="#3d4246" d="M39.6 38a30.4 30.4 0 0 0-23.1-1.4C5.1 40.5 0 38.6 0 38.6s10.2 5.4 21 .9C32 34.8 39.6 38 39.6 38Z" /></svg>