<svg xmlns="http://www.w3.org/2000/svg" xml:space="preserve" x="0" y="0" version="1.1" viewBox="0 0 60 60"><path fill="#3d4246" d="M16.9 10.5c2.3 0 4.2-1.9 4.2-4.2s-1.9-4.2-4.2-4.2-4.2 1.9-4.2 4.2c0 2.3 1.9 4.2 4.2 4.2zM57.1 43.2h-5.2c-8.4 0-14.1 3.6-19.6 7.1-4.8 3.1-9.4 6-15.4 6h-7c-.4 0-.7.3-.7.7s.3.7.7.7h7c6.5 0 11.2-3 16.2-6.2a33.1 33.1 0 0 1 18.8-6.9h5.2c.4 0 .7-.3.7-.7 0-.4-.2-.7-.7-.7z" /><path fill="#3d4246" d="m27 48.1 1.9.5.8-.5a32.7 32.7 0 0 1 18.7-6.8h5.2c.4 0 .7-.3.7-.7V22.8h2.8c.3 0 .6-.2.7-.5.1-.3 0-.6-.2-.8l-10.2-7.9V7.2c0-.4-.3-.7-.7-.7h-3.5c-.4 0-.7.3-.7.7v2.5l-4.1-3.1a.8.8 0 0 0-.9 0L18.2 21.5c-.2.1-.3.5-.2.8s.4.5.7.5h2.8v22.9c-2.6-.4-5.7-.7-9-.7v-3.8c2.5 0 4.4-.3 4.4-4 0-.2-.7-18.1-5-18.5h-.2c-1.5.1-2.7 2.3-3.6 6.7-.1.4.2.8.6.9.4.1.8-.2.9-.6 1.1-5.2 2.2-5.5 2.3-5.5 1.7.2 3.6 11.2 3.6 17 0 2.5-.7 2.5-3.6 2.5-.4 0-.7.3-.7.7v4.5H6.3V42c1.4-.1 2.6-.4 2.6-2.9 0-.1-.4-12.6-3.4-12.6S2.1 39 2.1 39.1c0 2.5 1.2 2.8 2.6 2.9v2.9H2.9c-.4 0-.7.3-.7.7s.3.7.7.7h8.7c7.5.1 12.9 1.2 15.4 1.8zm7.3-18.4c.2-1.8 1.7-3.1 3.5-3.1s3.3 1.4 3.5 3.1v9.1l-7 .1v-9.2z" /></svg>