<svg xmlns="http://www.w3.org/2000/svg" viewBox="0 0 60 60"><path fill="#3d4246" d="M57.8 19.1 46.5 7.2c-.2-.2-.7-.2-.9 0L34.3 19.1c-.2.2-.2.5-.1.7.1.2.3.4.6.4h3v2.9H25.1c-.2 0-2.5 0-3.6 1.8-.9 1.4-.8 3.2-.8 3.2v1.3h-3c-.2 0-.4.2-.4.4v2.1c0 8.9-6.7 16.2-14.9 16.2-.3 0-.4.1-.4.4v4.2c0 .2.2.3.5.3 6.9 0 13-3.8 16.6-9.6V53h3.1V34.7c0-.2.2-.4.4-.4H26v18c0 .4.3.7.7.7s.7-.3.7-.7v-2.7h5v2.7c0 .4.3.7.7.7s.7-.3.7-.7v-18h3.8V53h3.1V34.2h10.6V53h3.1V20.1h3c.3 0 .5-.2.6-.4.1-.2 0-.4-.2-.6zm-24.2 5.4v4.9h-2.8v-4.9h2.8zm-4.2 0v4.9h-2.8v-4.9h2.8zm-7.3 4.8v-1.4s0-1.4.6-2.4c.7-1.1 2.3-1.1 2.4-1.1h.1v4.9h-3.1zm10.4 18.9h-5v-3.7h5v3.7zm0-5.1h-5v-3.7h5v3.7zm-5.1-5.2v-3.6h5v3.6h-5zm7.6-8.6v-4.9h2.7v4.9H35zm11.1-2.4a5 5 0 0 1 0-9.8A5 5 0 0 1 51 22a5 5 0 0 1-4.9 4.9z"/></svg>