<svg xmlns="http://www.w3.org/2000/svg" xml:space="preserve" x="0" y="0" version="1.1" viewBox="0 0 60 60"><path fill="#3d4246" d="M52.1 50.4c-.8-.4-1.3-.6-2.1-.7a6.8 6.8 0 0 0-5.2.7l-1.5.5a5 5 0 0 1-3.2-.5 8.9 8.9 0 0 0-8.1 0c-1.4.7-2.2.7-3.7 0a8.9 8.9 0 0 0-8.1 0 5 5 0 0 1-3.4.4l-1.3-.4a7.3 7.3 0 0 0-5.2-.8l-2.5.8c-.4.2-.5.6-.3 1s.6.5 1 .3c.7-.3 1.4-.6 2.1-.7 1.7-.3 2.6-.1 4.2.7a6 6 0 0 0 1.9.6c1.5.3 2.8 0 4.2-.6a7.4 7.4 0 0 1 6.8 0 5 5 0 0 0 5 0 7.4 7.4 0 0 1 6.8 0c.9.5 2.2.8 3.2.8l1.1-.1c.7-.1 1.1-.4 1.7-.7 1.6-.8 2.5-.9 4.3-.5a5 5 0 0 1 1.7.6c.4.2.8 0 1-.3.2-.4-.1-.9-.4-1.1z"/><path fill="#3d4246" d="M53 35.9c.1-1.5-1.3-3.3-2.6-2.9-.4.1.3.6.5 1.1l.4 1.3c-1.5-1.2-2.8-.7-3.9.8-.2.2-.7 1 0 .8 1.4-.7 2-.7 2.9-.3a4 4 0 0 0-3.3 3.2c-.1.3.2.4.4.3.6-.6 1.2-1.2 2.2-1.6-1.2 2.1-.4 3.7.4 5.2.1.2.5.1.5-.1 0-1.9-.4-4.3 1.2-5.4.9 2.8.1 6-.8 8.6-.3-.2-.7-.3-1.3-.4-.5-.1-1.8-.3-3.1.1.2-.5.3-.9.3-1.5 0-2.1-1.4-3.9-3.4-4.4l-8.3-2.2v-.1l3.2-.8 5.2-1.4a4.5 4.5 0 0 0 3.2-3.3c.6-2.4-.9-4.9-3.3-5.5l-8.3-2.2v-.1l2.4-.6 6-1.6a4.5 4.5 0 0 0 3.2-3.3c.6-2.4-.9-4.9-3.3-5.5L25.1 9H25l-5.8-1.5c-2.4-.6-4.9.9-5.5 3.3-.2 1-.2 1.9.2 2.8.3.7.8 1.2 1 1.4a5 5 0 0 0 2.1 1.2l8.9 2.2v.1L24 19l-7 1.8a4.5 4.5 0 0 0-3.2 3.3c-.6 2.4.9 4.9 3.3 5.5l8.9 2.2v.1l-3.3.8-5.6 1.4a4.5 4.5 0 0 0-3.2 3.3c-.6 2.4.9 4.9 3.3 5.5 7.7 1.9 11.5 3.3 15.4 4.3l-.4.2c-1.4.7-2.2.7-3.7 0a8.9 8.9 0 0 0-8.1 0 5 5 0 0 1-3.4.4l-1.3-.4a7.3 7.3 0 0 0-5.2-.8l-1.3.3a13.3 13.3 0 0 1-1.1-8.7c1.6 1.1 1.2 3.5 1.2 5.4 0 .3.4.3.5.1.9-1.6 1.7-3.1.4-5.2 1 .4 1.6 1 2.2 1.6.2.2.5 0 .4-.3-.5-2-1.7-2.9-3.3-3.2.9-.4 1.4-.3 2.9.3.4.1.2-.6 0-.8-1.1-1.5-2.4-2-3.9-.8l.4-1.3c.2-.6.9-1 .5-1.1-1.3-.4-2.7 1.4-2.6 2.9-2.3-1.7-4.6-.4-4.9 2.3 0 .2.2.4.4.2 1.8-1.3 3.4-1 3.7-1.1-1.8.9-2 2-2.2 2.7-.3 1.1-.2 3.5.4 3.5.9.1.6-4.3 2.9-5.1-.6 2.7-.5 8.6.3 9.9.2.4.6.5 1 .3.7-.3 1.4-.6 2.1-.7 1.7-.3 2.6-.1 4.2.7.5.3 1.1.4 1.6.6 1.5.3 3.1.1 4.4-.6a7.4 7.4 0 0 1 6.8 0 5 5 0 0 0 5 0c.8-.4 1.7-.7 2.7-.8l1.6.4c4.4 1.3 4.8 1.4 5.5 1.4 1.7 0 2.9-.9 3.1-1 1.6-.8 2.5-.9 4.3-.5a7.5 7.5 0 0 1 2.1.6c.3 0 .6-.1.8-.4.8-1.3.9-7.1.3-9.8 2.3 1.7 2.3 5.1 2.9 5.1.6 0 .6-2.2.3-3.3-.2-.7-.2-2.1-2.1-3 .3.1 1.9-.2 3.5 1.3.2.2.4 0 .4-.2-.3-2.8-2.5-4-4.9-2.4zM23 21.8c-.3-.1-.4-.3-.4-.6s.2-.4.4-.5l5.2-1.4h.2L38 22c.3.1.4.3.4.6s-.1.4-.4.5l-5.8 1.4H32l-9-2.7zm9.2 15.9H32L23 35c-.3-.1-.4-.3-.4-.6s.2-.4.4-.5l5.2-1.4h.2l9.6 2.7c.3.1.4.3.4.6s-.2.5-.4.5l-5.8 1.4zm10.1 10.6-.7-.1a3 3 0 0 1-2.4-3c0-1.7 1.4-3.1 3.1-3.1s3.1 1.4 3.1 3.1c0 1.7-1.4 3.1-3.1 3.1z" /></svg>