<svg xmlns="http://www.w3.org/2000/svg" xml:space="preserve"  x="0" y="0" version="1.1" viewBox="0 0 60 60"><path  fill="#3d4246" d="M3.9 52.5c.7-.4 1.5-.6 2.3-.8a9 9 0 0 1 5.8.8l1.8.6c1.6.3 3.4.1 4.8-.6a9.6 9.6 0 0 1 8.1 0c2 1 4.6 1 6.6 0a9.6 9.6 0 0 1 8.1 0c1 .5 2.2.8 3.3.8l1.2-.1c.7-.1 1.4-.3 2.1-.7a9 9 0 0 1 8.1 0c.4.2.9 0 1.1-.4.2-.4 0-.9-.4-1.1l-2.7-.9c-2.3-.4-4.7-.1-6.8.9-.5.3-1.1.4-1.6.5a6 6 0 0 1-3.5-.5 10.8 10.8 0 0 0-9.6 0 6 6 0 0 1-5.2 0 10.8 10.8 0 0 0-9.6 0c-1.1.6-2.5.7-3.8.5l-1.4-.5a10.7 10.7 0 0 0-9.5 0c-.4.2-.6.7-.4 1.1.3.4.7.6 1.2.4zM56.9 55.5l-2.7-.9c-2.3-.4-4.7-.1-6.8.9-.5.3-1.1.4-1.6.5a6 6 0 0 1-3.5-.5 10.8 10.8 0 0 0-9.6 0 6 6 0 0 1-5.2 0 10.8 10.8 0 0 0-9.6 0c-1.1.6-2.5.7-3.8.5l-1.4-.5a10.7 10.7 0 0 0-9.5 0c-.4.2-.6.7-.4 1.1.2.4.6.6 1.1.4.7-.4 1.5-.6 2.3-.8a9 9 0 0 1 5.8.8l1.8.6c1.6.3 3.4.1 4.8-.6a9.6 9.6 0 0 1 8.1 0c2 1 4.6 1 6.6 0a9.6 9.6 0 0 1 8.1 0c1 .5 2.2.8 3.3.8l1.2-.1c.7-.1 1.5-.3 2.1-.7a9 9 0 0 1 8.1 0c.4.2.9 0 1.1-.4.3-.4.1-.9-.3-1.1zM16.4 47.1c0 .4.1.7.3 1 .2.3.6.4.9.4h5.5c.4 0 .7-.2.9-.4.2-.3.3-.5.3-1l-2-16.9 7-8.3c.4-.5.4-1.3-.1-1.7-.1-.1-.4-.4-.9-.4-.3 0-.6.1-.8.3L22.1 25l-.4-6.8c-.1-.7-.6-1.2-1.3-1.2-.7 0-1.2.5-1.3 1.2l-.4 6.8-5.6-4.8a1 1 0 0 0-.7-.3h-.2c-.3 0-.6.1-.9.4-.5.5-.5 1.2-.1 1.7l6.5 7.7.5.6-1.8 16.8zM43.4 40.8l.1-1.2-3.2-3.8c-.9-1-.5-2.8.8-3.3a2 2 0 0 1 1.5 0c.4.1 1 .7 1.3 1-.2-3.5 4.5-3.5 4.2 0l1.3-1 .2-.1c.5-.2 1.1-.1 1.6.2l.4.3c.9.7.8 2 .1 2.9l-3.2 3.8.1 1.2c5.4 2 9.9-5.2 5.8-9.2-.9-.9-2-1.5-3.2-1.6C54 19.9 38 20 40.8 30c-7.8 1.3-5.1 13.1 2.6 10.8z" /><path fill="#3d4246" d="m16.3 35.1.4-4.5-.1-.1-6.5-7.7c-.9-1.1-.9-2.7.1-3.7.5-.5 1.2-.8 1.9-.8s1.2.2 1.7.6l3.5 3 .3-4v-.1a2.6 2.6 0 0 1 2.7-2.4c1.4 0 2.6 1.1 2.7 2.5v.1l.3 4 3.5-3a2.9 2.9 0 0 1 2.6-.6l1.1.7c1 1 1.1 2.6.1 3.7l-6.7 7.8.5 4.6A16.7 16.7 0 0 0 32.3 7c-3.2-3.2-7.4-4.9-11.9-4.9S11.7 3.8 8.6 7A16.6 16.6 0 0 0 8 30c2.2 2.5 5.1 4.3 8.3 5.1zM50.7 34.1c-.1 0-.1 0 0 0-.1-.1-.1-.1 0 0-.1-.1-.1-.1 0 0-.1-.1-.1-.1 0 0l-.1-.1h-.4l-2.9 2.5-.6-3.5-.1-.3c-.1-.2-.3-.3-.6-.3-.2 0-.5.1-.6.3l-.1.3-.2 3.5-2.9-2.5H41.9l-.1.1h-.1c-.2.2-.3.6 0 .9l3.4 3.9.3.3-.1 1v.6l-.8 7c0 .2 0 .4.2.5l.5.2H48l.5-.2.2-.5-.9-7.5v-.1l-.1-1 3.6-4.2c-.4-.3-.4-.7-.6-.9z" /></svg>