<svg width="36" height="26" viewBox="0 0 36 26" fill="none" xmlns="http://www.w3.org/2000/svg">
<rect x="0.5" y="0.5" width="35" height="25" rx="1.5" fill="white" stroke="#E9E9E9"/>
<path d="M14.1514 17.5532L15.4704 9.14685H17.5718L16.2528 17.5532H14.1514Z" fill="#004686"/>
<path d="M23.8832 9.34948C23.2787 9.1123 22.6404 8.99405 21.9979 9.00023C19.9188 9.00023 18.4582 10.1373 18.4433 11.7699C18.4433 12.98 19.4866 13.6542 20.2839 14.0603C21.0813 14.4664 21.3943 14.7344 21.3943 15.0999C21.3943 15.6603 20.746 15.9121 20.1423 15.9121C19.4594 15.9349 18.7809 15.7848 18.1601 15.4735L17.8918 15.3354L17.5938 17.2198C18.3424 17.522 19.1353 17.6733 19.9337 17.6665C22.1693 17.6665 23.5777 16.5375 23.6001 14.7994C23.6001 13.841 23.0412 13.11 21.8339 12.509C21.0887 12.1191 20.6491 11.8673 20.6491 11.4693C20.6491 11.0714 21.0291 10.7465 21.8563 10.7465C22.3953 10.7362 22.9305 10.8468 23.4287 11.0714L23.615 11.1688L23.9056 9.34136L23.8832 9.34948Z" fill="#004686"/>
<path d="M29.2712 9.15433H27.6467C27.418 9.12279 27.1862 9.17408 26.9869 9.3003C26.7876 9.42652 26.6319 9.62067 26.5438 9.85282L23.4214 17.5525H25.657L26.0967 16.2936H28.7868C28.8539 16.586 29.0477 17.5525 29.0477 17.5525H31.0001L29.2712 9.15433ZM26.6779 14.5717C26.8568 14.0844 27.52 12.2245 27.52 12.2245C27.52 12.2245 27.6914 11.7371 27.7957 11.4123L27.9373 12.1351C27.9373 12.1351 28.3397 14.1413 28.4217 14.5717H26.6779Z" fill="#004686"/>
<path d="M12.3921 9.14685L10.3279 14.881L10.1118 13.7196C9.58516 12.1978 8.56058 10.9422 7.23535 10.1946L9.12071 17.5451H11.3563L14.665 9.14685H12.3921Z" fill="#004686"/>
<path d="M8.42047 9.14636H5V9.28444C7.63056 9.98294 9.38178 11.6642 10.1046 13.6866L9.35943 9.82049C9.30524 9.59721 9.17889 9.40277 9.00363 9.27294C8.82838 9.14311 8.616 9.08662 8.40557 9.11388L8.42047 9.14636Z" fill="#EF9B11"/>
</svg>
